<svg xmlns="http://www.w3.org/2000/svg" xmlns:xlink="http://www.w3.org/1999/xlink" width="100%" viewBox="0 0 586.263 184.928" xmlns:v="https://vecta.io/nano"><style><![CDATA[.B{stroke-miterlimit:10}.C{stroke-width:.797}.D{fill:none}.E{font-size:9.963px}.F{font-family:CMR10}.G{writing-mode:lr-tb}.H{fill:#000}.I{stroke:#000}.J{stroke-linecap:round}.K{stroke-linejoin:round}.L{fill-opacity:.05}.M{stroke-width:.638}.N{stroke-width:.399}]]></style><rect width="100%" height="100%" fill="white"/><g transform="matrix(1.3333 0 0 -1.3333 30.008583 91.450337)"><text xml:space="preserve" transform="matrix(1 0 0 -1 3.52 54.201)" class="E F G H"><tspan x="0 7.472 13.007 17.435 21.862 25.791 29.666 33.568 38.549 44.634 49.616 54.043 59.578 64.56 72.861" y="0">Ancestralgenome</tspan></text><g class="B C I"><path d="M0 56.695c-22.109 0 0-34.585 0-51.282" class="D"/><path d="M7.369 0L1.287 2.294 3.291 0 1.287-2.294z" transform="rotate(270 4.252 4.252)"/></g><text xml:space="preserve" transform="matrix(1 0 0 -1 14.859 30.556)" class="E F G H"><tspan x="0 5.535 8.303 16.326 21.861 24.629 29.61 33.484 36.252 41.233 50.086 54.015 57.89 62.871 66.773 70.648" y="0">Simulationstarts</tspan></text><g class="B C I"><path d="M92.964 34.017c15.497 0 20.422-18.52 20.422-28.605" class="D"/><path d="M7.369 0L1.287 2.294 3.291 0 1.287-2.294z" transform="rotate(270 60.945 -52.441)"/></g><g stroke="#ffc175" class="D B C"><path d="M129.42 0c0 2.594-2.103 4.696-4.696 4.696S120.028 2.594 120.028 0s2.103-4.696 4.696-4.696S129.42-2.594 129.42 0z"/><use xlink:href="#B"/></g><use xlink:href="#B" fill="#ffc175" class="L"/><g stroke="#bbbd6a" class="B C D"><path d="M174.775 0c0 2.594-2.103 4.696-4.696 4.696S165.382 2.594 165.382 0s2.103-4.696 4.696-4.696 4.696 2.103 4.696 4.696z"/><use xlink:href="#C"/></g><use xlink:href="#C" fill="#bbbd6a" class="L"/><g stroke="#7ab177" class="B C D"><path d="M197.452 0c0 2.594-2.103 4.696-4.696 4.696S188.059 2.594 188.059 0s2.103-4.696 4.696-4.696 4.696 2.103 4.696 4.696z"/><use xlink:href="#D"/></g><use xlink:href="#D" fill="#7ab177" class="L"/><g stroke="#37708a" class="B C D"><path d="M231.467 0c0 2.594-2.103 4.696-4.696 4.696S222.075 2.594 222.075 0s2.103-4.696 4.696-4.696 4.696 2.103 4.696 4.696z"/><use xlink:href="#E"/></g><use xlink:href="#E" fill="#37708a" class="L"/><g class="D B"><path d="M140.759 0c0 2.594-2.103 4.696-4.696 4.696A4.7 4.7 0 0 1 131.366 0c0-2.594 2.103-4.696 4.696-4.696A4.7 4.7 0 0 1 140.758 0zm45.354 0c0 2.594-2.103 4.696-4.696 4.696A4.7 4.7 0 0 1 176.72 0c0-2.594 2.103-4.696 4.696-4.696A4.7 4.7 0 0 1 186.112 0zm113.386 0c0 2.594-2.103 4.696-4.696 4.696A4.7 4.7 0 0 1 290.106 0c0-2.594 2.103-4.696 4.696-4.696A4.7 4.7 0 0 1 299.498 0z" stroke="gray" class="C"/><g class="I"><path d="M0 0v-17.008M113.386 0v-51.023M124.724 0v-17.008M226.771 0v-51.023M317.479 0v-17.008" stroke-dasharray="0.3985, 1.99255" class="N"/><path d="M112.678-17.008H.707" class="C"/><g class="J K M"><use xlink:href="#F"/><path d="M-1.554 2.072C-1.425 1.295 0 .13.389 0 0-.129-1.425-1.295-1.554-2.072" transform="rotate(180 .354 -8.504)"/></g></g></g><text xml:space="preserve" transform="matrix(1 0 0 -1 .32 -30.837)" class="E F G H"><tspan x="0 7.472 13.007 17.435 21.862 25.791 29.666 33.568 38.549 44.634 50.17 52.937 57.927 62.354 66.256 71.238 75.665 81.2 85.628 93.372 97.247 100.015 108.316" y="0">Ancestraldivergencetime</tspan></text><g class="B D I"><path d="M114.093-51.023h111.971" class="C"/><g class="J K M"><path d="M115.646-53.096c-.13.777-1.554 1.943-1.943 2.072.389.13 1.813 1.295 1.943 2.072"/><use xlink:href="#F" x="113.386" y="-34.015"/></g></g><text xml:space="preserve" transform="matrix(1 0 0 -1 129.23 -65.821)" class="E F G H"><tspan x="0 3.597 9.133 14.668 19.095 27.671 32.098 37.08 41.009 48.764 55.959 58.727 64.262 69.797 74.499" y="0">Indexcasewindow</tspan></text><g class="B D I"><path d="M125.431-17.008h191.341" class="C"/><g class="J K M"><path d="M-1.554 2.072C-1.425 1.295 0 .13.389 0 0-.129-1.425-1.295-1.554-2.072" transform="rotate(180 62.716 -8.504)"/><use xlink:href="#F" x="204.094"/></g></g><text xml:space="preserve" transform="matrix(1 0 0 -1 172.227 -30.837)" class="E F G H"><tspan x="0 5.535 8.303 13.838 18.819 21.587 26.014 29.889 34.87 43.723 48.15 53.132 57.061 64.816 72.011 74.778 80.313 85.849 90.551" y="0">Singletoncasewindow</tspan></text><g class="D I B"><g class="C"><path d="M.598 0h350.1"/><path d="M0 3.088v-6.177" transform="rotate(180 .199 0)"/><path d="M348.547 3.111c.466-1.867 1.504-2.748 2.55-3.111-1.046-.363-2.084-1.244-2.55-3.111" class="J K"/></g><path d="M11.339-2.268v4.535m11.338-4.535v4.535m11.339-4.535v4.535m11.338-4.535v4.535m11.339-4.535v4.535m11.338-4.535v4.535M79.37-2.268v4.535m11.338-4.535v4.535m11.339-4.535v4.535m11.339-4.535v4.535m11.338-4.535v4.535m11.339-4.535v4.535m11.338-4.535v4.535m11.339-4.535v4.535m11.338-4.535v4.535m11.339-4.535v4.535m11.338-4.535v4.535m11.339-4.535v4.535m11.338-4.535v4.535m11.339-4.535v4.535m11.339-4.535v4.535m11.338-4.535v4.535m11.339-4.535v4.535m11.338-4.535v4.535m11.339-4.535v4.535m11.338-4.535v4.535m11.339-4.535v4.535m11.338-4.535v4.535m11.339-4.535v4.535m11.339-4.535v4.535" class="N"/></g><text xml:space="preserve" transform="matrix(1 0 0 -1 360.68 -2.491)" class="E F G H"><tspan x="0 7.195 9.963 18.264 26.009 29.884 35.419 40.131 45.39 49.319" y="0">Time(days)</tspan></text><g class="B C D I"><path d="M351.495 14.173v47.392"/><path d="M-2.55 3.111C-2.084 1.244-1.046.363 0 0-1.046-.363-2.084-1.244-2.55-3.111" transform="rotate(90 144.766 206.729)" class="J K"/></g><text xml:space="preserve" transform="matrix(0 -1 -1 0 359.426 58.97)" class="E F G H"><tspan x="0 7.472 11.899 22.412 26.839 31.821 35.75 40.177" y="0">Newcases</tspan></text><text xml:space="preserve" transform="matrix(1 0 0 -1 338.003 -48.813)" class="E F G H"><tspan x="0 3.597 9.133 14.668 19.095 27.671 32.098 37.08 41.009 45.436" y="0">Indexcases</tspan></text><g fill="#fff" class="B C"><use xlink:href="#G" stroke="#ffc175"/><use xlink:href="#H" stroke="#bbbd6a"/><use xlink:href="#G" x="6.803" stroke="#7ab177"/><use xlink:href="#G" x="10.204" stroke="#37708a"/></g><text xml:space="preserve" transform="matrix(1 0 0 -1 338.003 -64.852)" class="E F G H"><tspan x="0 5.535 8.303 13.838 18.819 21.587 26.014 29.889 34.87 43.723 48.15 53.132 57.061 61.488" y="0">Singletoncases</tspan></text><g stroke="gray" fill="#fff" class="B C"><use xlink:href="#G" y="-15.874"/><use xlink:href="#H" y="-15.874"/><use xlink:href="#G" x="6.803" y="-15.874"/></g></g><defs ><path id="B" d="M124.724 0s8.192 6.934 11.339 11.339 8.192 17.263 11.339 20.409 8.192 2.425 11.339 2.268 8.192-1.986 11.339-3.402 8.192-4.915 11.339-6.803 8.192-4.286 11.339-6.803 8.192-8.979 11.339-11.339S215.432 0 215.432 0"/><path id="C" d="M170.078 0s8.192 14.811 11.339 22.677 8.192 28.509 11.339 34.016 8.192 4.096 11.339 5.669 8.192 5.512 11.339 5.669 8.192-2.648 11.339-4.535 8.192-6.554 11.339-9.071 8.192-7.183 11.339-9.071 8.192-2.962 11.339-4.535 8.192-5.073 11.339-6.803 8.192-4.568 11.339-5.669 8.192-.694 11.339-2.268 8.192-5.453 11.339-9.071S317.479 0 317.479 0"/><path id="D" d="M192.755 0s8.192 7.878 11.339 11.339 8.192 11.089 11.339 13.606 8.192 4.378 11.339 4.536 8.192-2.458 11.339-3.402 8.192-1.514 11.339-3.402 8.192-7.058 11.339-10.205S272.125 0 272.125 0"/><path id="E" d="M226.771 0s8.192 3.781 11.339 5.669 8.192 7.15 11.339 7.937 8.192-.852 11.339-2.268 8.192-6.364 11.339-7.937S283.464 0 283.464 0"/><path id="F" d="M111.124-14.936c.13-.777 1.554-1.943 1.943-2.072-.389-.13-1.813-1.295-1.943-2.072"/><path id="G" d="M322.176-45.354c0 2.594-2.103 4.696-4.696 4.696s-4.696-2.103-4.696-4.696 2.103-4.696 4.696-4.696a4.7 4.7 0 0 1 4.696 4.696z"/><path id="H" d="M325.577-45.354c0 2.594-2.103 4.696-4.696 4.696s-4.696-2.103-4.696-4.696 2.103-4.696 4.696-4.696 4.696 2.103 4.696 4.696z"/></defs></svg>
